<?xml version="1.0" encoding="UTF-8"?>
<svg id="Livello_1" xmlns="http://www.w3.org/2000/svg" version="1.1" viewBox="0 0 1496.68 1080">
  <!-- Generator: Adobe Illustrator 29.6.1, SVG Export Plug-In . SVG Version: 2.1.1 Build 9)  -->
  <path d="M1276.45,932.99c8.77-3.78,13.88-6.72,13.78-6.67-4.31,2.23-8.93,4.48-13.78,6.67Z"/>
  <path d="M1213.9,175.69c10.89,8.84,18.06,15.7,17.93,15.57-4.17-4.15-10.19-9.7-17.93-15.57Z"/>
  <path d="M1228.55,625.82c53.76-6.41,94.78-32.42,119.15-51.14,2.06-1.58-70.06,50.6-149.69,45.15-160.32-10.98-189.6-247.17-391.63-292.81-36.92-8.34-79.65-10.32-83.75-29.67-6.9-32.46,102.21-80.01,138.78-95.95,42.61-18.57,237.16-98.92,339.72-34.56,4.7,2.95,8.93,5.94,12.77,8.85-10.44-8.48-24.3-18.77-38.45-26.47-88.05-47.93-210.94-5.56-327.95,34.79-9.66,3.33-16.92,5.98-29.69,10.65-92.03,33.62-156.91,62.99-188.08,76.83-175.97,78.09-264.77,116.53-305.08,86.86-21.35-15.73-33.95-45.8-32.68-72.66,1.49-31.65,23.52-59.37,48.16-73.12,39.52-22.06,79.26-6.74,84.55-4.6-5.32-2.58-45.17-21.1-87.59-1.18-31.77,14.92-54.55,46.52-56.57,79.9-2.75,45.42,21.75,74.47,36.79,86.68,84.61,68.68,215.59-62.62,388.1-43.89,94.16,10.22,163.55,61.65,225.38,118.97.38.38,1.03.98,1.89,1.76,2.68,2.5,5.35,5,8.01,7.52,13.49,13.32,35.02,38.53,30.94,64.79-5.29,34.02-50.93,53.11-63.2,58.25-150.81,63.09-346.69-209.2-561.55-156-87.15,21.58-153.58,89.75-181.04,160.28-43.39,111.46-1.76,260.55,108.53,328.2,81.14,49.77,194.02,52.13,270.59,3.01,109.26-70.08,139.95-246.69,202.79-254.95,8.32-1.09,33.26-4.36,48.3,10.48,1.29,1.27,9.83,9.95,10.7,22.99.78,11.69-5,21.12-13.92,32.62-19.93,25.69-29.62,28.36-51.69,53.61-19.58,22.4-26,36.35-23.26,49.18.83,3.9,2.29,6.8,2.78,7.57,24.3,38.12,155.67-66.54,266.38-29.19,86.66,29.24,86.65,120.51,177.03,140.19,42.37,9.22,82.27-2.15,112.39-15.75-20.92,9.02-62.81,22.85-105.41,12.32-93.7-23.16-83.82-137.99-169.74-168.74-103.42-37.01-245.39,83.73-264.98,54.77-1.56-2.3-1.99-5.02-2.29-6.84-2.78-17.33,16.05-31.41,51.02-62.38,36.64-32.44,45.47-43.12,50.25-58.57,2.45-7.91,6.91-22.31.76-34.23-13.34-25.87-67.73-22.9-85.28-20.54-116.55,15.69-115.05,207.46-253.65,263.27-67.99,27.37-152.35,15.06-207.87-29.2-84.77-67.58-96.8-205.29-42.5-289.48,43.08-66.79,119.2-86.4,144.89-92.63,222.9-54.06,399.83,170.46,531.97,94.04,11.1-6.42,53.04-30.69,55.58-69.22,1.09-16.52-5.33-31.6-13.85-44,81.15,79.38,154.37,157.22,263.17,144.26Z"/>
</svg>